<svg xmlns="http://www.w3.org/2000/svg" viewBox="0 0 1400 900" role="img" aria-label="Stylized buildings illustration">
  <rect width="1400" height="900" fill="#f4eee5"/>
  <rect x="90" y="240" width="240" height="430" rx="26" fill="#315d49"/>
  <rect x="135" y="300" width="150" height="250" rx="16" fill="#f5efe8"/>
  <rect x="160" y="330" width="100" height="180" rx="12" fill="#dce9e0"/>
  <rect x="410" y="210" width="300" height="470" rx="28" fill="#4d6a5b"/>
  <rect x="455" y="280" width="210" height="300" rx="18" fill="#f5efe8"/>
  <rect x="490" y="310" width="140" height="220" rx="14" fill="#dfe9df"/>
  <rect x="830" y="170" width="360" height="530" rx="34" fill="#2e4f3e"/>
  <rect x="885" y="240" width="250" height="340" rx="22" fill="#f5efe8"/>
  <rect x="930" y="280" width="160" height="240" rx="16" fill="#e4ebdf"/>
  <rect x="170" y="140" width="80" height="70" rx="16" fill="#d7cdbf" fill-opacity="0.8"/>
  <rect x="495" y="120" width="80" height="70" rx="16" fill="#d7cdbf" fill-opacity="0.75"/>
  <rect x="940" y="110" width="80" height="70" rx="16" fill="#d7cdbf" fill-opacity="0.75"/>
</svg>
